# xmcd CD database file
#
# Track frame offsets:
#	187
#	19800
#	41500
#	61050
#
# Disc length: 1103 seconds
#
# Revision: 1
# Processed by: cddbd v1.5PL3 Copyright (c) Steve Scherf et al.
# Submitted via: CDex 1.51
#
DISCID=28044d04
DTITLE=パイレーツ - Fall in' love
DYEAR=1998
DGENRE=JPop
TTITLE0=Fall in' love
TTITLE1=ラビリンス
TTITLE2=Fall in' love (original karaoke)
TTITLE3=ラビリンス (original karaoke)
EXTD=YEAR: 1998
EXTT0=
EXTT1=
EXTT2=
EXTT3=
PLAYORDER=
